<svg version="1" xmlns="http://www.w3.org/2000/svg" width="1584" height="1584" viewBox="0 0 1188.000000 1188.000000"><path d="M49 214.6c-23.1 4.9-42.6 24.7-47.5 47.9-2.2 10.6-2.2 652.4 0 663C5.2 943.4 18 960 34.2 967.9c15.6 7.7-26.6 7.1 458.4 7.1h436.1l2.1-2.3 2.2-2.3V655.9l2.5-2.4c1.6-1.7 3.5-2.5 6-2.5 13.1 0 187 3 199.5 3.5 17.8.6 31.5-.7 37-3.5 4.8-2.4 8.8-7.1 9.5-11.3.3-1.8.5-88.9.3-193.7-.3-182.1-.4-190.7-2.1-196-6.5-19.2-18.5-29.6-39.7-34.7-7.1-1.7-33.7-1.8-549-2-461-.1-542.5.1-548 1.3zM274.1 329c22.6 2.3 38.6 6.8 57.4 16 14.6 7.2 27.7 16.9 35.6 26.4 24.7 29.5 31.2 84.3 14.9 125.3-7.2 18-20.7 36-34.6 45.9-8.6 6.1-21.4 12-31.9 14.6-4.9 1.3-9.2 2.3-9.3 2.5-.2.1 18 24.2 40.5 53.5l40.8 53.3.3-77.8.2-77.7h65v32.1l4.8-6.3c6.8-8.8 17.1-17.2 27.7-22.4 13.2-6.5 19.5-7.9 35.5-7.9 15.4 0 21.1 1.1 32 6.3 9.5 4.5 20 14.7 25.1 24.5l3.5 6.7 3.4-4.7c16.7-23.3 40.6-34.4 71-33 20 1 32.2 5.7 43 16.6 10.9 11 17.7 27 19.9 47.4.7 5.9 1.1 36.6 1.1 79.7v70h-63.9l-.4-66.8c-.3-60.1-.5-67.3-2.1-72.7-2.4-8.1-4.9-12.8-9.3-17.1-5.7-5.7-11.3-7.8-21.3-7.9-7.3 0-9.3.4-14.2 2.8-9.3 4.6-16.4 14.2-20.5 27.8-1.5 4.7-1.7 13.9-2 69.6l-.4 64.3H522v-63.8c-.1-69.2-.4-74.4-5.5-84.8-5.4-11.1-17.2-17.3-30.3-16.1-14.3 1.2-24.2 9.8-30.4 26.3-2.3 5.9-2.3 6.3-2.6 72.1l-.3 66.3H301.3L254 645.7c-26-40.8-47.9-74.9-48.6-75.7-1.2-1.2-1.4 10.5-1.4 74.3V720H102V328h80.9c49.1 0 85 .4 91.2 1zm545.7 411.1c5.3 2.6 11.3 9.9 14.3 17.6 1.9 4.9 2.3 7.7 2.3 17.8 0 13.9-1.8 20.1-8.4 28.4-6.6 8.3-9.4 9.1-31.5 9.1s-24.9-.8-31.5-9.1c-6.6-8.3-8.4-14.5-8.4-28.4 0-13.9 1.8-20.1 8.4-28.3 6.6-8.4 9.4-9.2 31.4-9.2 17.3 0 19.4.2 23.4 2.1z"/><path d="M204 454.2v48.6l10.3.7c19.6 1.3 42.9-4.2 55.9-13.1 4.9-3.5 10.3-11.5 12.4-18.9 2.4-8.2 2.4-24.9 0-33-3.8-12.8-10.7-19.7-25.8-25.5-12-4.6-19.9-6.1-37-6.7l-15.8-.6v48.5z"/></svg>